<!-- icon666.com - MILLIONS vector ICONS FREE --><svg id="Capa_1" enable-background="new 0 0 512 512" viewBox="0 0 512 512" xmlns="http://www.w3.org/2000/svg"><g><path d="m504.5 168c4.143 0 7.5-3.358 7.5-7.5v-109.5c0-9.649-7.851-17.5-17.5-17.5h-347.011c-4.143 0-7.5 3.358-7.5 7.5s3.357 7.5 7.5 7.5h347.011c1.379 0 2.5 1.122 2.5 2.5v10h-482v-10c0-1.378 1.121-2.5 2.5-2.5h94.989c4.143 0 7.5-3.358 7.5-7.5s-3.357-7.5-7.5-7.5h-94.989c-9.649 0-17.5 7.851-17.5 17.5v334c0 9.649 7.851 17.5 17.5 17.5h30.117c4.143 0 7.5-3.358 7.5-7.5s-3.357-7.5-7.5-7.5h-30.117c-1.379 0-2.5-1.122-2.5-2.5v-42.5h284.5c4.143 0 7.5-3.358 7.5-7.5s-3.357-7.5-7.5-7.5h-122.5v-14.5h320v14.5h-162.5c-4.143 0-7.5 3.358-7.5 7.5s3.357 7.5 7.5 7.5h162.5v42.5c0 1.378-1.121 2.5-2.5 2.5h-411.883c-4.143 0-7.5 3.358-7.5 7.5s3.357 7.5 7.5 7.5h138.879l-7.306 22.793h-11.144c-19.601 0-35.547 15.986-35.547 35.635 0 9.689 7.868 17.571 17.54 17.571h141.92c9.672 0 17.54-7.882 17.54-17.571 0-19.649-15.946-35.635-35.547-35.635h-11.144l-7.306-22.793h203.998c9.649 0 17.5-7.851 17.5-17.5v-189.5c0-4.142-3.357-7.5-7.5-7.5s-7.5 3.358-7.5 7.5v72.5h-155v-192h155v84.5c0 4.142 3.357 7.5 7.5 7.5zm-267.251 234.5h37.502l7.306 22.793h-52.114zm55.061 37.793c.008 0 .016.002.025.002s.017-.002.025-.002h16.593c11.329 0 20.547 9.257 20.547 20.635 0 1.418-1.14 2.571-2.54 2.571h-141.92c-1.4 0-2.54-1.153-2.54-2.571 0-11.378 9.218-20.635 20.547-20.635h16.593c.008 0 .017.002.025.002s.016-.002.025-.002zm-147.31-364.293h182v88.75h-182zm0 103.75h182v88.25h-182zm-100-103.75h85v12h-85zm0 27h85v45h-85zm0 60h85v45h-85zm0 60h85v45h-85zm-30-147h15v12h-15zm0 27h15v45h-15zm0 60h15v45h-15zm0 60h15v45h-15zm117 104.5h-117v-14.5h117zm30 0h-15v-14.5h15zm100-29.5h-247v-15h247zm30 0h-15v-15h15zm205-15v15h-190v-15z"></path><path d="m226 372.5c4.143 0 7.5-3.358 7.5-7.5s-3.357-7.5-7.5-7.5h-30c-4.143 0-7.5 3.358-7.5 7.5s3.357 7.5 7.5 7.5z"></path><path d="m316 372.5c4.143 0 7.5-3.358 7.5-7.5s-3.357-7.5-7.5-7.5h-30c-4.143 0-7.5 3.358-7.5 7.5s3.357 7.5 7.5 7.5z"></path><path d="m57.5 357.5h-20c-4.143 0-7.5 3.358-7.5 7.5s3.357 7.5 7.5 7.5h20c4.143 0 7.5-3.358 7.5-7.5s-3.357-7.5-7.5-7.5z"></path><path d="m474.5 372.5c4.143 0 7.5-3.358 7.5-7.5s-3.357-7.5-7.5-7.5h-20c-4.143 0-7.5 3.358-7.5 7.5s3.357 7.5 7.5 7.5z"></path><path d="m107.5 118h-40c-4.143 0-7.5 3.358-7.5 7.5s3.357 7.5 7.5 7.5h40c4.143 0 7.5-3.358 7.5-7.5s-3.357-7.5-7.5-7.5z"></path><path d="m107.5 178h-40c-4.143 0-7.5 3.358-7.5 7.5s3.357 7.5 7.5 7.5h40c4.143 0 7.5-3.358 7.5-7.5s-3.357-7.5-7.5-7.5z"></path><path d="m107.5 238h-40c-4.143 0-7.5 3.358-7.5 7.5s3.357 7.5 7.5 7.5h40c4.143 0 7.5-3.358 7.5-7.5s-3.357-7.5-7.5-7.5z"></path><path d="m400.44 120c3.002 7.601 10.405 13 19.06 13s16.057-5.399 19.06-13h31.94c4.143 0 7.5-3.358 7.5-7.5s-3.357-7.5-7.5-7.5h-31.94c-3.002-7.601-10.405-13-19.06-13s-16.057 5.399-19.06 13h-33.94c-4.143 0-7.5 3.358-7.5 7.5s3.357 7.5 7.5 7.5zm19.06-13c3.033 0 5.5 2.467 5.5 5.5s-2.467 5.5-5.5 5.5-5.5-2.467-5.5-5.5 2.467-5.5 5.5-5.5z"></path><path d="m438.56 227c-3.002-7.601-10.405-13-19.06-13s-16.057 5.399-19.06 13h-33.94c-4.143 0-7.5 3.358-7.5 7.5s3.357 7.5 7.5 7.5h33.94c3.002 7.601 10.405 13 19.06 13s16.057-5.399 19.06-13h34.94c4.143 0 7.5-3.358 7.5-7.5s-3.357-7.5-7.5-7.5zm-19.06 13c-3.033 0-5.5-2.467-5.5-5.5s2.467-5.5 5.5-5.5 5.5 2.467 5.5 5.5-2.467 5.5-5.5 5.5z"></path><path d="m474.444 162.077-43.126-16.358c-4.017-1.522-8.571-.544-11.608 2.492-3.036 3.037-4.014 7.593-2.491 11.608l2.345 6.182h-22.004c-3.002-7.601-10.405-13-19.06-13-11.304 0-20.5 9.196-20.5 20.5s9.196 20.5 20.5 20.5c8.655 0 16.057-5.399 19.06-13h27.694l8.324 21.946c1.622 4.275 5.625 7.044 10.198 7.054h.024c4.562 0 8.565-2.75 10.203-7.008l5.062-13.162c.399-1.039 1.225-1.864 2.265-2.264l13.162-5.062c4.268-1.642 7.019-5.657 7.008-10.229s-2.78-8.578-7.056-10.199zm-95.944 16.923c-3.033 0-5.5-2.467-5.5-5.5s2.467-5.5 5.5-5.5 5.5 2.467 5.5 5.5-2.467 5.5-5.5 5.5zm77.446-5.435c-4.994 1.92-8.96 5.886-10.881 10.88l-1.24 3.224-9.376-24.72 24.72 9.376z"></path><path d="m171 108c-4.143 0-7.5 3.358-7.5 7.5v10c0 4.142 3.357 7.5 7.5 7.5s7.5-3.358 7.5-7.5v-10c0-4.143-3.357-7.5-7.5-7.5z"></path><path d="m197 100.428c-4.143 0-7.5 3.358-7.5 7.5v25.143c0 4.142 3.357 7.5 7.5 7.5s7.5-3.358 7.5-7.5v-25.143c0-4.142-3.357-7.5-7.5-7.5z"></path><path d="m223 91c-4.143 0-7.5 3.358-7.5 7.5v44c0 4.142 3.357 7.5 7.5 7.5s7.5-3.358 7.5-7.5v-44c0-4.143-3.357-7.5-7.5-7.5z"></path><path d="m249 100.428c-4.143 0-7.5 3.358-7.5 7.5v25.143c0 4.142 3.357 7.5 7.5 7.5s7.5-3.358 7.5-7.5v-25.143c0-4.142-3.357-7.5-7.5-7.5z"></path><path d="m275 91c-4.143 0-7.5 3.358-7.5 7.5v44c0 4.142 3.357 7.5 7.5 7.5s7.5-3.358 7.5-7.5v-44c0-4.143-3.357-7.5-7.5-7.5z"></path><path d="m301 106.085c-4.143 0-7.5 3.358-7.5 7.5v13.829c0 4.142 3.357 7.5 7.5 7.5s7.5-3.358 7.5-7.5v-13.829c0-4.142-3.357-7.5-7.5-7.5z"></path><path d="m171 200c-4.143 0-7.5 3.358-7.5 7.5v33c0 4.142 3.357 7.5 7.5 7.5s7.5-3.358 7.5-7.5v-33c0-4.143-3.357-7.5-7.5-7.5z"></path><path d="m197 206c-4.143 0-7.5 3.358-7.5 7.5v21c0 4.142 3.357 7.5 7.5 7.5s7.5-3.358 7.5-7.5v-21c0-4.143-3.357-7.5-7.5-7.5z"></path><path d="m223 194.5c-4.143 0-7.5 3.358-7.5 7.5v44c0 4.142 3.357 7.5 7.5 7.5s7.5-3.358 7.5-7.5v-44c0-4.143-3.357-7.5-7.5-7.5z"></path><path d="m249 211.5c-4.143 0-7.5 3.358-7.5 7.5v10c0 4.142 3.357 7.5 7.5 7.5s7.5-3.358 7.5-7.5v-10c0-4.143-3.357-7.5-7.5-7.5z"></path><path d="m275 196.5c-4.143 0-7.5 3.358-7.5 7.5v40c0 4.142 3.357 7.5 7.5 7.5s7.5-3.358 7.5-7.5v-40c0-4.143-3.357-7.5-7.5-7.5z"></path><path d="m301 211.5c-4.143 0-7.5 3.358-7.5 7.5v10c0 4.142 3.357 7.5 7.5 7.5s7.5-3.358 7.5-7.5v-10c0-4.143-3.357-7.5-7.5-7.5z"></path><circle cx="256" cy="365" r="7.5"></circle></g></svg>